<svg width="22" height="22" viewBox="0 0 22 22" fill="none" xmlns="http://www.w3.org/2000/svg">
<path d="M11.0003 0.166626C16.9836 0.166626 21.8337 5.01671 21.8337 11C21.8337 16.9832 16.9836 21.8333 11.0003 21.8333C5.01708 21.8333 0.166992 16.9832 0.166992 11C0.166992 5.01671 5.01708 0.166626 11.0003 0.166626ZM11.0003 4.49996C10.713 4.49996 10.4375 4.6141 10.2343 4.81726C10.0311 5.02042 9.91699 5.29597 9.91699 5.58329V11C9.91705 11.2873 10.0312 11.5628 10.2344 11.7659L13.4844 15.0159C13.6887 15.2132 13.9624 15.3224 14.2464 15.3199C14.5305 15.3175 14.8022 15.2035 15.003 15.0027C15.2039 14.8018 15.3178 14.5301 15.3203 14.2461C15.3228 13.962 15.2136 13.6884 15.0162 13.484L12.0837 10.5515V5.58329C12.0837 5.29597 11.9695 5.02042 11.7664 4.81726C11.5632 4.6141 11.2876 4.49996 11.0003 4.49996Z" fill="#2C2C2D"/>
</svg>
