<svg width="22" height="22" viewBox="0 0 22 22" fill="none" xmlns="http://www.w3.org/2000/svg">
<path d="M7.106 13.8295L5.555 15.3879L4.048 13.8737C3.07763 15.1225 2.46185 16.6121 2.266 18.1842H4.4V20.3947H0V19.2895C0 13.94 3.784 9.48579 8.8 8.45789V6.24737L0 2.71053V0.5H22V2.71053L13.2 6.24737V8.45789C18.216 9.48579 22 13.94 22 19.2895V20.3947H17.6V18.1842H19.734C19.5382 16.6121 18.9224 15.1225 17.952 13.8737L16.445 15.3879L14.894 13.8295L16.401 12.3042C15.1533 11.3302 13.6676 10.7117 12.1 10.5137V12.6579H9.9V10.5137C8.294 10.7126 6.82 11.3537 5.599 12.3042L7.106 13.8295ZM11 17.0789C11.5835 17.0789 12.1431 17.3118 12.5556 17.7264C12.9682 18.1409 13.2 18.7032 13.2 19.2895C13.2 19.8757 12.9682 20.438 12.5556 20.8526C12.1431 21.2671 11.5835 21.5 11 21.5C10.648 21.5 10.318 21.4226 10.032 21.2679L5.797 19.2895L10.032 17.3111C10.318 17.1563 10.648 17.0789 11 17.0789Z" fill="#2C2C2D"/>
</svg>
