<svg width="21" height="27" viewBox="0 0 21 27" fill="none" xmlns="http://www.w3.org/2000/svg">
<path d="M13.7812 21.6C14.3281 21.6 14.7932 21.4033 15.1764 21.01C15.5597 20.6167 15.7509 20.1384 15.75 19.575C15.7491 19.0116 15.5579 18.5337 15.1764 18.1413C14.7949 17.7489 14.3299 17.5518 13.7812 17.55C13.2326 17.5482 12.768 17.7453 12.3874 18.1413C12.0067 18.5373 11.8151 19.0152 11.8125 19.575C11.8099 20.1348 12.0015 20.6131 12.3874 21.01C12.7732 21.4069 13.2379 21.6036 13.7812 21.6ZM7.15312 21.5325L15.6844 12.7575L13.8469 10.8675L5.31563 19.6425L7.15312 21.5325ZM7.21875 14.85C7.76562 14.85 8.23069 14.6533 8.61394 14.26C8.99719 13.8667 9.18837 13.3884 9.1875 12.825C9.18663 12.2616 8.99544 11.7837 8.61394 11.3913C8.23244 10.9989 7.76737 10.8018 7.21875 10.8C6.67013 10.7982 6.2055 10.9953 5.82487 11.3913C5.44425 11.7873 5.25263 12.2652 5.25 12.825C5.24737 13.3848 5.439 13.8631 5.82487 14.26C6.21075 14.6569 6.67537 14.8536 7.21875 14.85ZM10.5 27C7.50312 27 5.00413 25.9425 3.003 23.8275C1.00188 21.7125 0.000875 19.08 0 15.93C0 13.68 0.86975 11.2333 2.60925 8.59005C4.34875 5.94675 6.979 3.0834 10.5 0C14.0219 3.0825 16.6526 5.94585 18.3921 8.59005C20.1316 11.2342 21.0009 13.6809 21 15.93C21 19.08 19.9994 21.7125 17.9983 23.8275C15.9972 25.9425 13.4977 27 10.5 27ZM10.5 24.3C12.775 24.3 14.6562 23.5067 16.1437 21.92C17.6312 20.3333 18.375 18.3366 18.375 15.93C18.375 14.2875 17.7131 12.4313 16.3892 10.3613C15.0653 8.29125 13.1022 6.03 10.5 3.5775C7.89687 6.03 5.93381 8.29125 4.61081 10.3613C3.28781 12.4313 2.62587 14.2875 2.625 15.93C2.625 18.3375 3.36875 20.3346 4.85625 21.9213C6.34375 23.508 8.225 24.3009 10.5 24.3Z" fill="#2C2C2D"/>
</svg>
